<svg width="140" height="33" viewBox="0 0 140 33" fill="none" xmlns="http://www.w3.org/2000/svg">
<rect width="140" height="33" rx="3" fill="#C2C2C2"/>
<path d="M32 32V1.00001H3C2 1 1 2 1 3.00001V30C1 31 2 32 3 32H32Z" fill="white"/>
<rect x="22.2223" y="4.99579" width="2" height="13" rx="1" transform="rotate(5.70623 22.2223 4.99579)" fill="#C00A26"/>
<path d="M25.84 8V7.5H25.8129L25.786 7.50293L25.84 8ZM24.4626 20.9356L23.9646 20.8907L24.4626 20.9356ZM4.74728 12.3349L5.3134 17.0057L6.30614 16.8854L5.74001 12.2145L4.74728 12.3349ZM28 7.5H25.84V8.5H28V7.5ZM25.786 7.50293C18.3437 8.31161 13.8914 8.7954 6.96075 9.54849L7.06878 10.5426C13.9995 9.78955 18.4518 9.30576 25.894 8.49707L25.786 7.50293ZM25.343 7.94539L24.1668 18.6503L25.1608 18.7595L26.337 8.05461L25.343 7.94539ZM24.1658 18.6599L23.9646 20.8907L24.9605 20.9806L25.1618 18.7498L24.1658 18.6599ZM7.79524 19.2049H24.6638V18.2049H7.79524V19.2049ZM22.4706 22.2559H6.47706V23.2559H22.4706V22.2559ZM5.3134 17.0057C5.46554 18.2609 6.53087 19.2049 7.79524 19.2049V18.2049C7.03662 18.2049 6.39742 17.6385 6.30614 16.8854L5.3134 17.0057ZM23.9646 20.8907C23.8948 21.6638 23.2468 22.2559 22.4706 22.2559V23.2559C23.7643 23.2559 24.8443 22.269 24.9605 20.9806L23.9646 20.8907ZM5.74001 12.2145C5.63953 11.3855 6.23742 10.633 7.06878 10.5426L6.96075 9.54849C5.57665 9.69889 4.57962 10.9516 4.74728 12.3349L5.74001 12.2145Z" fill="#C2C2C2"/>
<ellipse cx="11.3563" cy="26.068" rx="1.90212" ry="1.93204" fill="#C6C6C6"/>
<ellipse cx="20.867" cy="26.068" rx="1.90212" ry="1.93204" fill="#C6C6C6"/>
<path d="M54.5532 16.9282L57.334 9.91406H59.1851L54.9102 19.9829C54.6224 20.6248 54.354 21.0814 54.105 21.3525C53.856 21.6182 53.5627 21.8229 53.2251 21.9668C52.8931 22.1051 52.4753 22.1743 51.9717 22.1743C51.5345 22.1743 51.255 22.1494 51.1333 22.0996L51.1831 20.8379L51.9385 20.8711C52.5195 20.8711 52.9512 20.5916 53.2334 20.0327L53.4409 19.6011L53.7563 18.8623L49.6392 9.91406H51.4238L54.5532 16.9282ZM67.8677 18.1733H66.7471V22H65.2031V13.0186H66.7471V16.8203H67.7515L70.7729 13.0186H72.6323L69.0796 17.335L72.9312 22H70.9805L67.8677 18.1733ZM73.6616 17.4263C73.6616 16.5464 73.8332 15.755 74.1763 15.0522C74.5249 14.3494 75.0063 13.8071 75.6206 13.4253C76.2404 13.0435 76.946 12.8525 77.7373 12.8525C78.9603 12.8525 79.9481 13.2759 80.7007 14.1226C81.4588 14.9692 81.8379 16.0954 81.8379 17.501V17.6089C81.8379 18.4832 81.6691 19.269 81.3315 19.9663C80.9995 20.658 80.5208 21.1976 79.8955 21.585C79.2757 21.9723 78.5618 22.166 77.7539 22.166C76.5365 22.166 75.5487 21.7427 74.7905 20.896C74.0379 20.0493 73.6616 18.9287 73.6616 17.5342V17.4263ZM75.2056 17.6089C75.2056 18.605 75.4352 19.4046 75.8945 20.0078C76.3594 20.611 76.9792 20.9126 77.7539 20.9126C78.5342 20.9126 79.154 20.6082 79.6133 19.9995C80.0726 19.3853 80.3022 18.5275 80.3022 17.4263C80.3022 16.4412 80.0671 15.6444 79.5967 15.0356C79.1318 14.4214 78.512 14.1143 77.7373 14.1143C76.9792 14.1143 76.3677 14.4159 75.9028 15.019C75.438 15.6222 75.2056 16.4855 75.2056 17.6089ZM85.4404 13.0186V20.7466H88.7275V13.0186H90.2632V20.7466H93.542V13.0186H95.0859V22H83.8965V13.0186H85.4404ZM103.32 13.0186H104.856V22H103.32V15.4507L99.1782 22H97.6426V13.0186H99.1782V19.5762L103.32 13.0186ZM110.119 18.1733H108.998V22H107.454V13.0186H108.998V16.8203H110.002L113.024 13.0186H114.883L111.331 17.335L115.182 22H113.231L110.119 18.1733ZM119.44 19.7505L121.532 13.0186H123.176L119.565 23.3862C119.006 24.8804 118.118 25.6274 116.9 25.6274L116.61 25.6025L116.037 25.4946V24.2495L116.452 24.2827C116.972 24.2827 117.376 24.1776 117.664 23.9673C117.957 23.757 118.198 23.3724 118.386 22.8135L118.727 21.9004L115.522 13.0186H117.199L119.44 19.7505Z" fill="white"/>
</svg>