<svg width="144" height="37" viewBox="0 0 144 37" fill="none" xmlns="http://www.w3.org/2000/svg">
<g filter="url(#filter0_d)">
<rect width="140" height="33" rx="3" fill="#C00A26"/>
</g>
<path d="M32 32V1.00001H3C2 1 1 2 1 3.00001V30C1 31 2 32 3 32H32Z" fill="white"/>
<path d="M25.84 8V7.5H25.8129L25.786 7.50293L25.84 8ZM24.4626 20.9356L24.9605 20.9806L24.4626 20.9356ZM4.74728 12.3349L5.3134 17.0057L6.30614 16.8854L5.74001 12.2145L4.74728 12.3349ZM28 7.5H25.84V8.5H28V7.5ZM25.786 7.50293C18.3437 8.31161 13.8914 8.7954 6.96075 9.54849L7.06878 10.5426C13.9995 9.78955 18.4518 9.30576 25.894 8.49707L25.786 7.50293ZM25.343 7.94539L24.1668 18.6503L25.1608 18.7595L26.337 8.05461L25.343 7.94539ZM24.1658 18.6599L23.9646 20.8907L24.9605 20.9806L25.1618 18.7498L24.1658 18.6599ZM7.79524 19.2049H24.6638V18.2049H7.79524V19.2049ZM22.4706 22.2559H6.47706V23.2559H22.4706V22.2559ZM5.3134 17.0057C5.46554 18.2609 6.53087 19.2049 7.79524 19.2049V18.2049C7.03662 18.2049 6.39742 17.6385 6.30614 16.8854L5.3134 17.0057ZM23.9646 20.8907C23.8948 21.6638 23.2468 22.2559 22.4706 22.2559V23.2559C23.7643 23.2559 24.8443 22.269 24.9605 20.9806L23.9646 20.8907ZM5.74001 12.2145C5.63953 11.3855 6.23742 10.633 7.06878 10.5426L6.96075 9.54849C5.57665 9.69889 4.57962 10.9516 4.74728 12.3349L5.74001 12.2145Z" fill="#C00A26"/>
<ellipse cx="11.3563" cy="26.068" rx="1.90212" ry="1.93204" fill="#C00A26"/>
<ellipse cx="20.867" cy="26.068" rx="1.90212" ry="1.93204" fill="#C00A26"/>
<path d="M54.3433 24.9717H52.3511V22H44.3906V24.9717H42.3652L42.2988 20.3232H43.27C43.7515 19.8584 44.1361 19.1833 44.4238 18.2979C44.7116 17.4069 44.897 16.3997 44.98 15.2764L45.2954 9.91406H52.9155V20.3232H54.4512L54.3433 24.9717ZM45.644 20.3232H50.8237V11.6074H47.2959L47.0967 15.0107C46.9473 17.2852 46.4631 19.056 45.644 20.3232ZM55.4556 17.4263C55.4556 16.5464 55.6299 15.755 55.9785 15.0522C56.3271 14.3439 56.8169 13.8016 57.4478 13.4253C58.0786 13.0435 58.8035 12.8525 59.6226 12.8525C60.8345 12.8525 61.8167 13.2427 62.5693 14.0229C63.3275 14.8032 63.737 15.8381 63.7979 17.1274L63.8062 17.6006C63.8062 18.486 63.6346 19.2773 63.2915 19.9746C62.9539 20.6719 62.467 21.2114 61.8306 21.5933C61.1997 21.9751 60.4692 22.166 59.6392 22.166C58.3719 22.166 57.3564 21.7454 56.5928 20.9043C55.8346 20.0576 55.4556 18.9315 55.4556 17.5259V17.4263ZM57.4727 17.6006C57.4727 18.5247 57.6636 19.2497 58.0454 19.7754C58.4272 20.2956 58.9585 20.5557 59.6392 20.5557C60.3198 20.5557 60.8483 20.29 61.2246 19.7588C61.6064 19.2275 61.7974 18.45 61.7974 17.4263C61.7974 16.5187 61.6009 15.7993 61.208 15.2681C60.8206 14.7368 60.2922 14.4712 59.6226 14.4712C58.964 14.4712 58.4411 14.734 58.0537 15.2598C57.6663 15.7799 57.4727 16.5602 57.4727 17.6006ZM72.937 18.4473H71.916V22H69.8989V13.0186H71.916V16.6045H72.8042L75.2861 13.0186H77.7764L74.5308 17.3184L78.0503 22H75.4272L72.937 18.4473ZM78.2993 17.4263C78.2993 16.5464 78.4736 15.755 78.8223 15.0522C79.1709 14.3439 79.6606 13.8016 80.2915 13.4253C80.9224 13.0435 81.6473 12.8525 82.4663 12.8525C83.6782 12.8525 84.6605 13.2427 85.4131 14.0229C86.1712 14.8032 86.5807 15.8381 86.6416 17.1274L86.6499 17.6006C86.6499 18.486 86.4784 19.2773 86.1353 19.9746C85.7977 20.6719 85.3107 21.2114 84.6743 21.5933C84.0435 21.9751 83.313 22.166 82.4829 22.166C81.2157 22.166 80.2002 21.7454 79.4365 20.9043C78.6784 20.0576 78.2993 18.9315 78.2993 17.5259V17.4263ZM80.3164 17.6006C80.3164 18.5247 80.5073 19.2497 80.8892 19.7754C81.271 20.2956 81.8022 20.5557 82.4829 20.5557C83.1636 20.5557 83.6921 20.29 84.0684 19.7588C84.4502 19.2275 84.6411 18.45 84.6411 17.4263C84.6411 16.5187 84.4447 15.7993 84.0518 15.2681C83.6644 14.7368 83.1359 14.4712 82.4663 14.4712C81.8078 14.4712 81.2848 14.734 80.8975 15.2598C80.5101 15.7799 80.3164 16.5602 80.3164 17.6006ZM90.4517 13.0186V20.3896H93.2573V13.0186H95.2744V20.3896H98.0884V13.0186H100.097V22H88.4346V13.0186H90.4517ZM107.892 13.0186H109.9V22H107.892V16.0068L104.372 22H102.363V13.0186H104.372V19.0117L107.892 13.0186ZM115.238 18.4473H114.217V22H112.2V13.0186H114.217V16.6045H115.105L117.587 13.0186H120.077L116.832 17.3184L120.351 22H117.728L115.238 18.4473ZM126.826 22C126.737 21.8285 126.66 21.549 126.593 21.1616C125.951 21.8312 125.166 22.166 124.236 22.166C123.334 22.166 122.598 21.9087 122.028 21.394C121.458 20.8794 121.173 20.243 121.173 19.4849C121.173 18.5275 121.527 17.7943 122.235 17.2852C122.949 16.7705 123.967 16.5132 125.29 16.5132H126.527V15.9238C126.527 15.459 126.397 15.0882 126.137 14.8115C125.877 14.5293 125.481 14.3882 124.95 14.3882C124.49 14.3882 124.114 14.5044 123.821 14.7368C123.528 14.9637 123.381 15.2542 123.381 15.6084H121.364C121.364 15.1159 121.527 14.6566 121.854 14.2305C122.18 13.7988 122.623 13.4613 123.182 13.2178C123.746 12.9743 124.374 12.8525 125.066 12.8525C126.117 12.8525 126.956 13.1182 127.581 13.6494C128.206 14.1751 128.527 14.9167 128.544 15.874V19.9248C128.544 20.7327 128.657 21.3774 128.884 21.8589V22H126.826ZM124.609 20.5474C125.008 20.5474 125.381 20.4505 125.73 20.2568C126.084 20.0632 126.35 19.8031 126.527 19.4766V17.7832H125.439C124.692 17.7832 124.131 17.9132 123.754 18.1733C123.378 18.4334 123.19 18.8014 123.19 19.2773C123.19 19.6647 123.317 19.9746 123.572 20.207C123.832 20.4339 124.178 20.5474 124.609 20.5474Z" fill="white"/>
<defs>
<filter id="filter0_d" x="0" y="0" width="144" height="37" filterUnits="userSpaceOnUse" color-interpolation-filters="sRGB">
<feFlood flood-opacity="0" result="BackgroundImageFix"/>
<feColorMatrix in="SourceAlpha" type="matrix" values="0 0 0 0 0 0 0 0 0 0 0 0 0 0 0 0 0 0 127 0"/>
<feOffset dx="2" dy="2"/>
<feGaussianBlur stdDeviation="1"/>
<feColorMatrix type="matrix" values="0 0 0 0 0 0 0 0 0 0 0 0 0 0 0 0 0 0 0.1 0"/>
<feBlend mode="normal" in2="BackgroundImageFix" result="effect1_dropShadow"/>
<feBlend mode="normal" in="SourceGraphic" in2="effect1_dropShadow" result="shape"/>
</filter>
</defs>
</svg>