<?xml version="1.0" encoding="UTF-8"?>
<!-- Generator: Adobe Illustrator 22.1.0, SVG Export Plug-In . SVG Version: 6.00 Build 0)  -->
<svg version="1.1" id="Слой_1" xmlns="http://www.w3.org/2000/svg" xmlns:xlink="http://www.w3.org/1999/xlink" x="0px" y="0px" viewBox="0 0 100 100" style="enable-background:new 0 0 100 100;" xml:space="preserve">
<style type="text/css">
	.st0{fill:#F7F7F7;}
	.st1{fill:#838383;}
</style>
<g id="Слой_2_1_">
	<circle class="st0" cx="51.5" cy="49.8" r="42"/>
</g>
<g id="Слой_1_1_">
	<g>
		<path class="st1" d="M58.1,49.8l11-11c1.3-1.3,1.3-3.4,0-4.7l-1.9-1.9c-1.3-1.3-3.4-1.3-4.7,0l-11,11l-11-11    c-1.3-1.3-3.4-1.3-4.7,0L34,34.1c-1.3,1.3-1.3,3.4,0,4.7l11,11l-11,11c-1.3,1.3-1.3,3.4,0,4.7l1.9,1.9c1.3,1.3,3.4,1.3,4.7,0    l11-11l11,11c1.3,1.3,3.4,1.3,4.7,0l1.9-1.9c1.3-1.3,1.3-3.4,0-4.7L58.1,49.8z"/>
	</g>
</g>
</svg>