<?xml version="1.0" encoding="UTF-8"?>
<!-- Generator: Adobe Illustrator 22.1.0, SVG Export Plug-In . SVG Version: 6.00 Build 0)  -->
<svg version="1.1" id="Слой_1" xmlns="http://www.w3.org/2000/svg" xmlns:xlink="http://www.w3.org/1999/xlink" x="0px" y="0px" viewBox="0 0 30 26" style="enable-background:new 0 0 30 26;" xml:space="preserve">
<style type="text/css">
	.st0{fill:#C00A26;}
</style>
<g id="Слой_2_1_">
</g>
<g>
	<path class="st0" d="M14.6,25.1C0.9,17.4,0.7,8.7,0.7,8.1c-0.1-2.4,1.4-7,7.3-7.1c3.6-0.1,5.8,1.8,7.1,3.7c1.4-2.2,3.9-3.6,6.8-3.7   c4.6-0.1,7.1,2.2,7.5,6.8c0.7,8.2-13.1,16.9-13.7,17.3l-0.5,0.3L14.6,25.1z M8.4,3C8.3,3,8.2,3,8.1,3c-5.4,0.2-5.3,4.8-5.3,5l0,0   C2.8,8.2,2.9,16,15.2,23c4-2.6,12.6-9.5,12.2-15.1C27,4.4,25.4,2.9,22,3c-2.3,0-5.1,1.4-5.8,4.3l-2,0C14.1,7.2,12.9,3,8.4,3z"/>
</g>
</svg>