<svg width="26" height="23" viewBox="0 0 26 23" fill="none" xmlns="http://www.w3.org/2000/svg">
<rect width="26" height="23" fill="black" fill-opacity="0"/>
<path d="M4.44118 20.5222V17.8448V16.8448H3.44118H1V1.04273C1.0001 1.04259 1.00021 1.04244 1.00031 1.04229C1.00531 1.03524 1.01181 1.0274 1.01961 1.0196C1.02741 1.0118 1.03525 1.0053 1.0423 1.0003C1.04244 1.0002 1.04259 1.0001 1.04273 1H24.9767C24.9776 1.00055 24.9786 1.00116 24.9796 1.00185C24.984 1.00482 24.9886 1.00846 24.9928 1.01255C24.9957 1.01536 24.9981 1.01802 25 1.02035V16.8471L24.9495 16.846C24.9212 16.8454 24.8875 16.8448 24.8529 16.8448H8.41177H7.98683L7.69189 17.1507L4.44118 20.5222Z" stroke="white" stroke-width="2"/>
<path d="M13.0899 4.45238C12.1475 4.45238 11.3908 4.96667 11.3253 5.16667C11.5216 5.96667 11.2131 6.35714 10.6241 6.35714C10.1851 6.35714 9.6289 5.613 10.3412 4.7C11.0916 3.7381 12.0265 3.5 13.0899 3.5C14.1475 3.5 16 4.26405 16 6.35714C16 8.37312 14.3639 8.97619 14.3639 8.97619C14.3639 8.97619 14.0017 9.21292 13.1952 9.21292V10.1667C13.1952 10.1667 13.1465 10.7 12.5009 10.7C11.8552 10.7 11.7928 10.1667 11.7928 10.1667V8.80414C11.7928 8.32414 11.8956 8.32857 12.0265 8.26191H13.0899C14.2695 8.26191 15.0651 7.27046 15.0651 6.35714C15.065 5.44383 14.2679 4.45238 13.0899 4.45238Z" fill="white" stroke="white" stroke-width="0.5"/>
<ellipse cx="12.5008" cy="13" rx="0.981683" ry="1" fill="white" stroke="white" stroke-width="0.5"/>
</svg>