<svg width="166" height="85" viewBox="0 0 166 85" fill="none" xmlns="http://www.w3.org/2000/svg">
<path d="M5.1 61V67.4202H4.4V61.633H0.8V67.4202H0V61H5.1Z" fill="#3C3C3B"/>
<path d="M9.3001 62.7181C10.0001 62.7181 10.6001 62.9894 11.1001 63.4415C11.6001 63.8936 11.9001 64.4362 11.9001 65.1596C11.9001 65.7926 11.6001 66.4255 11.1001 66.8777C10.6001 67.3298 10.0001 67.6011 9.3001 67.6011C8.4001 67.6011 7.7001 67.2394 7.3001 66.6064V69.3192H6.6001V62.8989H7.3001V63.8032C7.8001 63.0798 8.4001 62.7181 9.3001 62.7181ZM7.9001 66.4255C8.3001 66.7872 8.8001 66.9681 9.3001 66.9681C9.9001 66.9681 10.3001 66.7872 10.7001 66.4255C11.1001 66.0638 11.3001 65.6117 11.3001 65.1596C11.3001 64.617 11.1001 64.2553 10.7001 63.8936C10.3001 63.5319 9.8001 63.3511 9.3001 63.3511C8.7001 63.3511 8.3001 63.5319 7.9001 63.8936C7.5001 64.2553 7.3001 64.7075 7.3001 65.1596C7.3001 65.7021 7.5001 66.0638 7.9001 66.4255Z" fill="#3C3C3B"/>
<path d="M17.3 66.8777C16.8 67.3298 16.2 67.6011 15.4 67.6011C14.7 67.6011 14 67.3298 13.5 66.8777C13 66.4255 12.7 65.883 12.7 65.1596C12.7 64.4362 13 63.8936 13.5 63.4415C14 62.9894 14.6 62.7181 15.4 62.7181C16.1 62.7181 16.8 62.9894 17.3 63.4415C17.8 63.8936 18.1 64.4362 18.1 65.1596C18.1 65.883 17.8 66.4255 17.3 66.8777ZM14 66.4255C14.4 66.7872 14.9 66.9681 15.4 66.9681C16 66.9681 16.4 66.7872 16.8 66.4255C17.2 66.0638 17.4 65.7021 17.4 65.1596C17.4 64.617 17.2 64.2553 16.8 63.8936C16.5 63.5319 16 63.3511 15.4 63.3511C14.8 63.3511 14.4 63.5319 14 63.8936C13.6 64.2553 13.4 64.617 13.4 65.1596C13.4 65.7021 13.6 66.0638 14 66.4255Z" fill="#3C3C3B"/>
<path d="M21.5999 67.6011C20.7999 67.6011 20.1999 67.3298 19.6999 66.8777C19.1999 66.4255 18.8999 65.883 18.8999 65.1596C18.8999 64.4362 19.1999 63.8936 19.6999 63.4415C20.1999 62.9894 20.7999 62.7181 21.5999 62.7181C22.0999 62.7181 22.4999 62.8085 22.8999 63.0798C23.2999 63.2606 23.5999 63.6223 23.7999 63.984L23.1999 64.2553C23.0999 63.984 22.7999 63.8032 22.4999 63.6223C22.1999 63.4415 21.8999 63.3511 21.4999 63.3511C20.8999 63.3511 20.4999 63.5319 20.0999 63.8936C19.6999 64.2553 19.4999 64.7075 19.4999 65.1596C19.4999 65.7021 19.6999 66.0638 20.0999 66.4255C20.4999 66.7872 20.9999 66.9681 21.4999 66.9681C21.8999 66.9681 22.1999 66.8777 22.4999 66.6968C22.7999 66.516 22.9999 66.3351 23.1999 66.0638L23.7999 66.3351C23.5999 66.6968 23.2999 66.9681 22.8999 67.2394C22.4999 67.4202 22.0999 67.6011 21.5999 67.6011Z" fill="#3C3C3B"/>
<path d="M28.4001 62.8989V63.4415H26.6001V67.4202H25.9001V63.4415H24.1001V62.8989H28.4001Z" fill="#3C3C3B"/>
<path d="M29.8001 61.8138C29.7001 61.9043 29.6001 61.9043 29.5001 61.9043C29.4001 61.9043 29.2001 61.9043 29.2001 61.8138C29.1001 61.7234 29.1001 61.633 29.1001 61.5426C29.1001 61.4521 29.1001 61.3617 29.2001 61.2713C29.3001 61.1808 29.4001 61.1808 29.5001 61.1808C29.6001 61.1808 29.7001 61.1808 29.8001 61.2713C29.9001 61.3617 29.9001 61.4521 29.9001 61.5426C30.0001 61.5426 29.9001 61.7234 29.8001 61.8138ZM29.2001 67.4202V62.8085H29.9001V67.4202H29.2001Z" fill="#3C3C3B"/>
<path d="M34 62.7181C34.7 62.7181 35.3 62.9894 35.8 63.4415C36.3 63.8936 36.6 64.4362 36.6 65.1596C36.6 65.7926 36.3 66.4255 35.8 66.8777C35.3 67.3298 34.7 67.6011 34 67.6011C33.1 67.6011 32.4 67.2394 32 66.6064V69.3192H31.3V62.8989H32V63.8032C32.4 63.0798 33.1 62.7181 34 62.7181ZM32.5 66.4255C32.9 66.7872 33.4 66.9681 33.9 66.9681C34.5 66.9681 34.9 66.7872 35.3 66.4255C35.7 66.0638 35.9 65.6117 35.9 65.1596C35.9 64.617 35.7 64.2553 35.3 63.8936C34.9 63.5319 34.4 63.3511 33.9 63.3511C33.3 63.3511 32.9 63.5319 32.5 63.8936C32.1 64.2553 31.9 64.7075 31.9 65.1596C31.9 65.7021 32.1 66.0638 32.5 66.4255Z" fill="#3C3C3B"/>
<path d="M44.3 67.4202H43.4L40.9 65.25V67.4202H40.2V62.8085H40.9V64.7979L43.3 62.8085H44.2L41.6 64.9787L44.3 67.4202Z" fill="#3C3C3B"/>
<path d="M48.8 62.8989H49.5V67.5106H48.8V65.5213H45.9V67.5106H45.2V62.8989H45.9V64.8883H48.8V62.8989Z" fill="#3C3C3B"/>
<path d="M54.5999 62.8989H55.1999V67.5106H54.4999V63.984L51.4999 67.5106H50.8999V62.8989H51.5999V66.4255L54.5999 62.8989Z" fill="#3C3C3B"/>
<path d="M62.5 67.4202H61.7L59.6 65.25V67.4202H58.9V65.25L56.8 67.4202H56L58.3 65.0692L56.1 62.8989H56.9L58.9 64.8883V62.8989H59.6V64.8883L61.6 62.8989H62.4L60.2 65.0692L62.5 67.4202Z" fill="#3C3C3B"/>
<path d="M67.2999 66.8777C66.7999 67.3298 66.1999 67.6011 65.3999 67.6011C64.5999 67.6011 63.9999 67.3298 63.4999 66.8777C62.9999 66.4255 62.7 65.883 62.7 65.1596C62.7 64.4362 62.9999 63.8936 63.4999 63.4415C63.9999 62.9894 64.5999 62.7181 65.3999 62.7181C66.1999 62.7181 66.7999 62.9894 67.2999 63.4415C67.7999 63.8936 68.0999 64.4362 68.0999 65.1596C68.0999 65.883 67.7999 66.4255 67.2999 66.8777ZM63.8999 66.4255C64.2999 66.7872 64.7999 66.9681 65.2999 66.9681C65.8999 66.9681 66.3 66.7872 66.7 66.4255C67.2 66.0638 67.3999 65.7021 67.3999 65.1596C67.3999 64.617 67.1999 64.2553 66.7999 63.8936C66.3999 63.5319 65.8999 63.3511 65.3999 63.3511C64.7999 63.3511 64.3999 63.5319 63.9999 63.8936C63.5999 64.2553 63.3999 64.617 63.3999 65.1596C63.3999 65.7021 63.5999 66.0638 63.8999 66.4255Z" fill="#3C3C3B"/>
<path d="M73.2001 67.4202H72.3001L69.8001 65.25V67.4202H69.1001V62.8085H69.8001V64.7979L72.2001 62.8085H73.1001L70.5001 64.9787L73.2001 67.4202Z" fill="#3C3C3B"/>
<path d="M75.3001 66.6968L74.7001 68.7766H74.1001L74.5001 66.6968H75.3001Z" fill="#3C3C3B"/>
<path d="M85.9001 66.8777H86.6001V68.6862H85.9001V67.4202H79.1001V62.8085H79.8001V66.7872H82.2001V62.8085H82.9001V66.7872H85.3001V62.8085H86.0001V66.8777H85.9001Z" fill="#3C3C3B"/>
<path d="M91.7001 66.8777C91.2001 67.3298 90.6001 67.6011 89.8001 67.6011C89.1001 67.6011 88.4001 67.3298 87.9001 66.8777C87.4001 66.4255 87.1001 65.883 87.1001 65.1596C87.1001 64.4362 87.4001 63.8936 87.9001 63.4415C88.4001 62.9894 89.0001 62.7181 89.8001 62.7181C90.5001 62.7181 91.2001 62.9894 91.7001 63.4415C92.2001 63.8936 92.5001 64.4362 92.5001 65.1596C92.5001 65.883 92.2001 66.4255 91.7001 66.8777ZM88.4001 66.4255C88.8001 66.7872 89.3001 66.9681 89.8001 66.9681C90.4001 66.9681 90.8001 66.7872 91.2001 66.4255C91.6001 66.0638 91.8001 65.6117 91.8001 65.1596C91.8001 64.617 91.6001 64.2553 91.2001 63.8936C90.8001 63.5319 90.3001 63.3511 89.8001 63.3511C89.2001 63.3511 88.8001 63.5319 88.4001 63.8936C88.0001 64.2553 87.8001 64.7075 87.8001 65.1596C87.8001 65.7021 88.0001 66.0638 88.4001 66.4255Z" fill="#3C3C3B"/>
<path d="M98.7001 65.0692C99.3001 65.25 99.6001 65.6117 99.6001 66.1543C99.6001 66.516 99.4001 66.8777 99.1001 67.1489C98.8001 67.4202 98.3001 67.5106 97.7001 67.5106C96.7001 67.5106 96.0001 67.1489 95.7001 66.4255L96.3001 66.1543C96.5001 66.6968 97.0001 66.9681 97.7001 66.9681C98.1001 66.9681 98.4001 66.8777 98.6001 66.6968C98.8001 66.516 98.9001 66.3351 98.9001 66.1543C98.9001 65.9734 98.8001 65.7926 98.6001 65.6117C98.4001 65.5213 98.2001 65.4309 97.9001 65.4309H97.2001V64.8883H97.7001C98.0001 64.8883 98.2001 64.7979 98.4001 64.7075C98.6001 64.617 98.6001 64.4362 98.6001 64.1649C98.6001 63.984 98.5001 63.8032 98.3001 63.6223C98.1001 63.4415 97.8001 63.4415 97.5001 63.4415C96.9001 63.4415 96.4001 63.7128 96.2001 64.1649L95.6001 63.8936C95.9001 63.2606 96.5001 62.8989 97.4001 62.8989C97.9001 62.8989 98.4001 62.9894 98.7001 63.2606C99.0001 63.5319 99.2001 63.8032 99.2001 64.1649C99.3001 64.5266 99.1001 64.8883 98.7001 65.0692Z" fill="#3C3C3B"/>
<path d="M105 62.8989H105.7V67.5106H105V66.6064C104.5 67.2394 103.9 67.6011 103 67.6011C102.3 67.6011 101.7 67.3298 101.2 66.8777C100.7 66.4255 100.4 65.883 100.4 65.1596C100.4 64.5266 100.7 63.8936 101.2 63.4415C101.7 62.9894 102.3 62.7181 103 62.7181C103.9 62.7181 104.6 63.0798 105 63.7128V62.8989ZM101.5 66.4255C101.9 66.7872 102.4 66.9681 102.9 66.9681C103.5 66.9681 103.9 66.7872 104.3 66.4255C104.7 66.0638 104.9 65.6117 104.9 65.1596C104.9 64.617 104.7 64.2553 104.3 63.8936C103.9 63.5319 103.4 63.3511 102.9 63.3511C102.3 63.3511 101.9 63.5319 101.5 63.8936C101.1 64.2553 100.9 64.7075 100.9 65.1596C101 65.7021 101.2 66.0638 101.5 66.4255Z" fill="#3C3C3B"/>
<path d="M111.3 67.4202H110.5L108.9 65.5213L107.3 67.4202H106.5L108.5 65.0692L106.6 62.8989H107.4L108.8 64.617L110.2 62.8989H111L109.2 65.0692L111.3 67.4202Z" fill="#3C3C3B"/>
<path d="M116.1 66.8777C115.6 67.3298 115 67.6011 114.2 67.6011C113.5 67.6011 112.8 67.3298 112.3 66.8777C111.8 66.4255 111.5 65.883 111.5 65.1596C111.5 64.4362 111.8 63.8936 112.3 63.4415C112.8 62.9894 113.4 62.7181 114.2 62.7181C114.9 62.7181 115.6 62.9894 116.1 63.4415C116.6 63.8936 116.9 64.4362 116.9 65.1596C116.9 65.883 116.6 66.4255 116.1 66.8777ZM112.8 66.4255C113.2 66.7872 113.7 66.9681 114.2 66.9681C114.8 66.9681 115.2 66.7872 115.6 66.4255C116 66.0638 116.2 65.6117 116.2 65.1596C116.2 64.617 116 64.2553 115.6 63.8936C115.2 63.5319 114.7 63.3511 114.2 63.3511C113.6 63.3511 113.2 63.5319 112.8 63.8936C112.4 64.2553 112.2 64.7075 112.2 65.1596C112.2 65.7021 112.4 66.0638 112.8 66.4255Z" fill="#3C3C3B"/>
<path d="M122.2 62.8989V67.5106H121.5V63.5319H118.6V67.5106H117.9V62.8989H122.2Z" fill="#3C3C3B"/>
<path d="M127.8 62.8989V67.5106H127.1V63.5319H124.8V65.6117C124.8 66.3351 124.6 66.8777 124.3 67.1489C124 67.4202 123.5 67.6011 123 67.5106V66.9681C123.4 66.9681 123.7 66.8777 123.9 66.6968C124.1 66.516 124.2 66.1543 124.2 65.5213V62.8989H127.8Z" fill="#3C3C3B"/>
<path d="M133.6 62.7181C134.3 62.7181 135 62.9894 135.5 63.4415C136 63.8936 136.3 64.4362 136.3 65.1596C136.3 65.883 136 66.4255 135.5 66.8777C135 67.3298 134.4 67.6011 133.6 67.6011C132.9 67.6011 132.3 67.4202 131.8 66.9681C131.3 66.6064 131 66.0638 131 65.4309H129.9V67.4202H129.2V62.8085H129.9V64.7979H131C131.1 64.1649 131.4 63.7128 131.8 63.2606C132.3 62.9894 132.9 62.7181 133.6 62.7181ZM132.1 66.4255C132.5 66.7872 133 66.9681 133.5 66.9681C134.1 66.9681 134.5 66.7872 134.9 66.4255C135.3 66.0638 135.5 65.6117 135.5 65.1596C135.5 64.617 135.3 64.2553 134.9 63.8936C134.5 63.5319 134 63.3511 133.5 63.3511C132.9 63.3511 132.5 63.5319 132.1 63.8936C131.7 64.2553 131.5 64.7075 131.5 65.1596C131.6 65.7021 131.8 66.0638 132.1 66.4255Z" fill="#3C3C3B"/>
<path d="M141.7 62.7181C142.4 62.7181 143.1 62.9894 143.6 63.4415C144.1 63.8936 144.4 64.4362 144.4 65.1596C144.4 65.883 144.1 66.4255 143.6 66.8777C143.1 67.3298 142.5 67.6011 141.7 67.6011C141 67.6011 140.4 67.4202 139.9 66.9681C139.4 66.6064 139.1 66.0638 139.1 65.4309H138V67.4202H137.3V62.8085H138V64.7979H139.1C139.2 64.1649 139.5 63.7128 139.9 63.2606C140.4 62.9894 141 62.7181 141.7 62.7181ZM140.3 66.4255C140.7 66.7872 141.2 66.9681 141.7 66.9681C142.3 66.9681 142.7 66.7872 143.1 66.4255C143.5 66.0638 143.7 65.6117 143.7 65.1596C143.7 64.617 143.5 64.2553 143.1 63.8936C142.7 63.5319 142.2 63.3511 141.7 63.3511C141.1 63.3511 140.7 63.5319 140.3 63.8936C139.9 64.2553 139.7 64.7075 139.7 65.1596C139.7 65.7021 139.9 66.0638 140.3 66.4255Z" fill="#3C3C3B"/>
<path d="M148.9 62.8989V63.4415H147.1V67.4202H146.4V63.4415H144.6V62.8989H148.9Z" fill="#3C3C3B"/>
<path d="M151.8 64.617C152.3 64.617 152.7 64.7075 153 64.9787C153.3 65.25 153.5 65.6117 153.5 65.9734C153.5 66.4255 153.3 66.6968 153 66.9681C152.7 67.2394 152.3 67.3298 151.8 67.3298H149.7V62.7181H150.4V64.4362H151.8V64.617ZM151.8 66.8777C152.1 66.8777 152.3 66.7872 152.5 66.6064C152.7 66.4255 152.8 66.2447 152.8 65.9734C152.8 65.7021 152.7 65.5213 152.5 65.3404C152.3 65.1596 152.1 65.0692 151.8 65.0692H150.4V66.6968H151.8V66.8777Z" fill="#3C3C3B"/>
<path d="M1.98153 49.4681V23.2863H12.8991C14.8594 23.2863 16.5 23.5632 17.821 24.1172C19.1506 24.6712 20.1477 25.4468 20.8125 26.4439C21.4858 27.4411 21.8224 28.5959 21.8224 29.9084C21.8224 30.9056 21.6136 31.7962 21.196 32.5803C20.7784 33.3559 20.2031 33.9993 19.4702 34.5107C18.7372 35.0221 17.8892 35.38 16.9261 35.5846V35.8402C17.983 35.8914 18.9588 36.1769 19.8537 36.6968C20.7571 37.2167 21.4815 37.9411 22.027 38.8701C22.5724 39.7905 22.8452 40.8814 22.8452 42.1428C22.8452 43.549 22.4872 44.8061 21.7713 45.9141C21.0554 47.0135 20.0199 47.8829 18.6648 48.5221C17.3097 49.1527 15.6648 49.4681 13.7301 49.4681H1.98153ZM8.30966 44.3672H12.2216C13.5938 44.3672 14.6037 44.1073 15.2514 43.5874C15.9077 43.0675 16.2358 42.3431 16.2358 41.4141C16.2358 40.7408 16.0781 40.1613 15.7628 39.6755C15.4474 39.1811 15 38.8019 14.4205 38.5377C13.8409 38.265 13.1463 38.1286 12.3366 38.1286H8.30966V44.3672ZM8.30966 34.0505H11.8125C12.5028 34.0505 13.1165 33.9354 13.6534 33.7053C14.1903 33.4752 14.608 33.1428 14.9062 32.7081C15.2131 32.2735 15.3665 31.7493 15.3665 31.1357C15.3665 30.2579 15.0554 29.5675 14.4332 29.0647C13.8111 28.5618 12.9716 28.3104 11.9148 28.3104H8.30966V34.0505ZM35.054 49.8388C32.9915 49.8388 31.2188 49.4169 29.7358 48.5732C28.2614 47.7209 27.1236 46.5363 26.3224 45.0192C25.5298 43.4936 25.1335 41.7252 25.1335 39.7138C25.1335 37.6939 25.5298 35.9255 26.3224 34.4084C27.1236 32.8829 28.2614 31.6982 29.7358 30.8544C31.2188 30.0022 32.9915 29.576 35.054 29.576C37.1165 29.576 38.8849 30.0022 40.3594 30.8544C41.8423 31.6982 42.9801 32.8829 43.7727 34.4084C44.5739 35.9255 44.9744 37.6939 44.9744 39.7138C44.9744 41.7252 44.5739 43.4936 43.7727 45.0192C42.9801 46.5363 41.8423 47.7209 40.3594 48.5732C38.8849 49.4169 37.1165 49.8388 35.054 49.8388ZM35.0923 45.1215C35.8423 45.1215 36.4773 44.8914 36.9972 44.4311C37.517 43.9709 37.9134 43.3317 38.1861 42.5135C38.4673 41.6954 38.608 40.7493 38.608 39.6755C38.608 38.5846 38.4673 37.63 38.1861 36.8118C37.9134 35.9936 37.517 35.3544 36.9972 34.8942C36.4773 34.434 35.8423 34.2039 35.0923 34.2039C34.3168 34.2039 33.6605 34.434 33.1236 34.8942C32.5952 35.3544 32.1903 35.9936 31.9091 36.8118C31.6364 37.63 31.5 38.5846 31.5 39.6755C31.5 40.7493 31.6364 41.6954 31.9091 42.5135C32.1903 43.3317 32.5952 43.9709 33.1236 44.4311C33.6605 44.8914 34.3168 45.1215 35.0923 45.1215ZM57.343 49.8388C55.2805 49.8388 53.5078 49.4169 52.0249 48.5732C50.5504 47.7209 49.4126 46.5363 48.6115 45.0192C47.8189 43.4936 47.4226 41.7252 47.4226 39.7138C47.4226 37.6939 47.8189 35.9255 48.6115 34.4084C49.4126 32.8829 50.5504 31.6982 52.0249 30.8544C53.5078 30.0022 55.2805 29.576 57.343 29.576C59.4055 29.576 61.174 30.0022 62.6484 30.8544C64.1314 31.6982 65.2692 32.8829 66.0618 34.4084C66.8629 35.9255 67.2635 37.6939 67.2635 39.7138C67.2635 41.7252 66.8629 43.4936 66.0618 45.0192C65.2692 46.5363 64.1314 47.7209 62.6484 48.5732C61.174 49.4169 59.4055 49.8388 57.343 49.8388ZM57.3814 45.1215C58.1314 45.1215 58.7663 44.8914 59.2862 44.4311C59.8061 43.9709 60.2024 43.3317 60.4751 42.5135C60.7564 41.6954 60.897 40.7493 60.897 39.6755C60.897 38.5846 60.7564 37.63 60.4751 36.8118C60.2024 35.9936 59.8061 35.3544 59.2862 34.8942C58.7663 34.434 58.1314 34.2039 57.3814 34.2039C56.6058 34.2039 55.9496 34.434 55.4126 34.8942C54.8842 35.3544 54.4794 35.9936 54.1982 36.8118C53.9254 37.63 53.7891 38.5846 53.7891 39.6755C53.7891 40.7493 53.9254 41.6954 54.1982 42.5135C54.4794 43.3317 54.8842 43.9709 55.4126 44.4311C55.9496 44.8914 56.6058 45.1215 57.3814 45.1215ZM76.1037 44.3161L76.1293 36.863H76.9986L82.5213 29.8317H89.6037L81.3963 39.9056H79.7472L76.1037 44.3161ZM70.4659 49.4681V23.2863H76.7173V49.4681H70.4659ZM82.6619 49.4681L77.5227 41.3118L81.6392 36.8757L89.8849 49.4681H82.6619ZM91.8409 49.4681V23.2863H98.169V33.7948H108.486V23.2863H114.801V49.4681H108.486V38.9468H98.169V49.4681H91.8409ZM131.44 40.9922V29.8317H137.678V49.4681H131.721V45.8118H131.516C131.082 47.0135 130.34 47.9681 129.292 48.6755C128.252 49.3743 126.995 49.7238 125.521 49.7238C124.183 49.7238 123.006 49.4169 121.992 48.8033C120.978 48.1897 120.19 47.3331 119.627 46.2337C119.065 45.1257 118.779 43.8303 118.771 42.3473V29.8317H125.022V41.1201C125.031 42.1854 125.312 43.0249 125.866 43.6385C126.42 44.2522 127.174 44.559 128.129 44.559C128.751 44.559 129.309 44.4226 129.803 44.1499C130.306 43.8686 130.702 43.4638 130.992 42.9354C131.29 42.3985 131.44 41.7507 131.44 40.9922ZM141.657 49.4681V23.2863H147.909V33.1939H148.037C148.292 32.5973 148.654 32.0221 149.123 31.4681C149.6 30.9141 150.206 30.4624 150.939 30.113C151.68 29.755 152.566 29.576 153.598 29.576C154.961 29.576 156.235 29.934 157.42 30.6499C158.613 31.3658 159.576 32.4695 160.309 33.961C161.042 35.4525 161.409 37.353 161.409 39.6627C161.409 41.8871 161.055 43.7493 160.348 45.2493C159.649 46.7493 158.703 47.8743 157.51 48.6243C156.325 49.3743 155.008 49.7493 153.559 49.7493C152.571 49.7493 151.714 49.5874 150.99 49.2635C150.265 48.9397 149.656 48.5135 149.162 47.9851C148.676 47.4567 148.301 46.89 148.037 46.2848H147.845V49.4681H141.657ZM147.781 39.6499C147.781 40.7067 147.922 41.6272 148.203 42.4113C148.493 43.1954 148.906 43.8047 149.443 44.2394C149.988 44.6655 150.64 44.8786 151.399 44.8786C152.166 44.8786 152.818 44.6655 153.355 44.2394C153.892 43.8047 154.297 43.1954 154.569 42.4113C154.85 41.6272 154.991 40.7067 154.991 39.6499C154.991 38.5931 154.85 37.6769 154.569 36.9013C154.297 36.1257 153.892 35.5249 153.355 35.0988C152.826 34.6726 152.174 34.4596 151.399 34.4596C150.632 34.4596 149.98 34.6684 149.443 35.086C148.906 35.5036 148.493 36.1002 148.203 36.8757C147.922 37.6513 147.781 38.576 147.781 39.6499Z" fill="#3C3C3B"/>
</svg>
