<?xml version="1.0" encoding="UTF-8"?>
<!-- Generator: Adobe Illustrator 22.1.0, SVG Export Plug-In . SVG Version: 6.00 Build 0)  -->
<svg version="1.1" id="Слой_1" xmlns="http://www.w3.org/2000/svg" xmlns:xlink="http://www.w3.org/1999/xlink" x="0px" y="0px" viewBox="0 0 26 21" style="enable-background:new 0 0 26 21;" xml:space="preserve">
<style type="text/css">
	.st0{fill:#FFFFFF;}
</style>
<path class="st0" d="M23.3,4.4c-0.8-0.4-1.4-1.1-1.5-1.8c-0.3-1.3-0.7-2.8-3.3-2.3c-4.5,1-14.5,3.1-14.5,3.1S0.3,4.1,0.3,8.7v9.2  c0,1.3,1.2,2.3,2.7,2.3h19.9c1.5,0,2.7-1,2.7-2.3V8.7C25.7,6.7,24.8,5.1,23.3,4.4z M8.1,4l11.6-2.7c0,0,1.2-0.3,1.4,0.6  c0.1,0.4,0.3,1.2,0.4,1.7c0,0.3,0,0.5-1.1,0.5c-2.1,0.1-8.9,0.2-12.2,0.2C7.9,4.3,7.9,4,8.1,4z M21.2,13.3c-0.6,0-1.1-0.5-1.1-1.1  s0.5-1.1,1.1-1.1s1.1,0.5,1.1,1.1S21.8,13.3,21.2,13.3z"/>
</svg>