<svg width="25" height="25" viewBox="0 0 25 25" fill="none" xmlns="http://www.w3.org/2000/svg">
<rect width="25" height="25" fill="white"/>
<g clip-path="url(#clip0_1_2)">
<path d="M10.2236 18.1784C8.66358 18.1784 7.13859 17.7158 5.84148 16.8491C4.54437 15.9824 3.5334 14.7505 2.93641 13.3093C2.33941 11.868 2.18321 10.2821 2.48756 8.75201C2.7919 7.22196 3.54312 5.81652 4.64622 4.71342C5.74932 3.61032 7.15476 2.8591 8.6848 2.55476C10.2148 2.25041 11.8008 2.40661 13.2421 3.00361C14.6833 3.6006 15.9152 4.61157 16.7819 5.90868C17.6486 7.20579 18.1112 8.73078 18.1112 10.2908C18.109 12.382 17.2772 14.387 15.7985 15.8657C14.3198 17.3444 12.3148 18.1762 10.2236 18.1784ZM10.2236 3.1172C8.80479 3.1172 7.41785 3.53792 6.23816 4.32617C5.05847 5.11441 4.13901 6.23478 3.59606 7.54558C3.0531 8.85639 2.91104 10.2988 3.18784 11.6903C3.46463 13.0818 4.14785 14.3601 5.1511 15.3633C6.15434 16.3665 7.43256 17.0498 8.8241 17.3266C10.2156 17.6034 11.658 17.4613 12.9688 16.9183C14.2796 16.3754 15.4 15.4559 16.1882 14.2762C16.9765 13.0965 17.3972 11.7096 17.3972 10.2908C17.395 8.38892 16.6385 6.56558 15.2936 5.22075C13.9488 3.87592 12.1255 3.11942 10.2236 3.1172Z" fill="#888888"/>
<path d="M21.0092 22.7144C20.8536 22.719 20.6988 22.6916 20.5542 22.6338C20.4097 22.576 20.2787 22.4891 20.1692 22.3784L14.6 16.7504C14.5665 16.7176 14.5398 16.6783 14.5217 16.6351C14.5035 16.5918 14.4941 16.5453 14.4941 16.4984C14.4941 16.4515 14.5035 16.405 14.5217 16.3617C14.5398 16.3185 14.5665 16.2792 14.6 16.2464L16.2044 14.642C16.2373 14.6085 16.2765 14.5818 16.3197 14.5637C16.363 14.5455 16.4095 14.5361 16.4564 14.5361C16.5033 14.5361 16.5498 14.5455 16.5931 14.5637C16.6363 14.5818 16.6756 14.6085 16.7084 14.642L22.3364 20.27C22.4431 20.3755 22.5278 20.501 22.5856 20.6395C22.6433 20.7779 22.6731 20.9264 22.6731 21.0764C22.6731 21.2264 22.6433 21.3749 22.5856 21.5133C22.5278 21.6518 22.4431 21.7773 22.3364 21.8828L21.8408 22.3784C21.7323 22.488 21.6026 22.5743 21.4596 22.6321C21.3166 22.6899 21.1634 22.7179 21.0092 22.7144ZM15.3308 16.4984L20.7152 21.8744C20.7951 21.9519 20.9021 21.9952 21.0134 21.9952C21.1247 21.9952 21.2317 21.9519 21.3116 21.8744L21.8072 21.3788C21.8872 21.2985 21.9322 21.1898 21.9322 21.0764C21.9322 20.963 21.8872 20.8543 21.8072 20.774L16.4312 15.44L15.3308 16.4984Z" fill="#888888"/>
<path d="M5.402 10.652C5.3062 10.652 5.21433 10.6139 5.14659 10.5462C5.07885 10.4785 5.0408 10.3866 5.0408 10.2908C5.04302 8.91692 5.58978 7.59994 6.56126 6.62846C7.53274 5.65698 8.84972 5.11022 10.2236 5.108C10.2751 5.10008 10.3276 5.10339 10.3777 5.11769C10.4278 5.13199 10.4742 5.15695 10.5137 5.19086C10.5532 5.22477 10.585 5.26683 10.6067 5.31414C10.6285 5.36146 10.6397 5.41292 10.6397 5.465C10.6397 5.51708 10.6285 5.56854 10.6067 5.61586C10.585 5.66317 10.5532 5.70523 10.5137 5.73914C10.4742 5.77305 10.4278 5.79801 10.3777 5.81231C10.3276 5.82661 10.2751 5.82992 10.2236 5.822C9.03985 5.82423 7.90535 6.29603 7.06911 7.13385C6.23286 7.97167 5.7632 9.10705 5.7632 10.2908C5.7632 10.3382 5.75386 10.3852 5.7357 10.429C5.71755 10.4728 5.69095 10.5127 5.65741 10.5462C5.62386 10.5797 5.58405 10.6064 5.54022 10.6245C5.4964 10.6427 5.44943 10.652 5.402 10.652Z" fill="#888888"/>
</g>
<defs>
<clipPath id="clip0_1_2">
<rect width="21" height="21" fill="white" transform="translate(2 2)"/>
</clipPath>
</defs>
</svg>