<svg width="42" height="27" viewBox="0 0 42 27" fill="none" xmlns="http://www.w3.org/2000/svg">
<path d="M2 0C0.4 0 0 1.33333 0 2V19C0 20.1046 0.89543 21 2 21H3.19002C4.21753 21 5.06118 20.202 5.47208 19.2603C6.15868 17.6866 7.65469 16 10.5 16C13.3453 16 14.8413 17.6866 15.5279 19.2603C15.9388 20.202 16.7825 21 17.81 21H19C20.1046 21 21 20.1076 21 19.003V2C21 0.4 19.6667 0 19 0H2Z" transform="translate(1 2)" stroke="#888888"/>
<path d="M0 15.9501V2C0 0.895431 0.895431 0 2 0H7.02183C7.63901 0 8.22162 0.284945 8.60054 0.772118L14.5787 8.45833C14.8518 8.8094 15 9.24146 15 9.68622V15.9501C15 16.53 14.53 17 13.9501 17C13.4107 17 12.9648 16.5883 12.8177 16.0693C12.3253 14.3312 10.8451 12 7.5 12C4.15487 12 2.67472 14.3312 2.18225 16.0693C2.03522 16.5883 1.58925 17 1.04988 17C0.470045 17 0 16.53 0 15.9501Z" transform="translate(25 6)" stroke="#888888"/>
<circle cx="3.5" cy="3.5" r="3" transform="translate(8 20)" stroke="#757575"/>
<circle cx="3.5" cy="3.5" r="3" transform="translate(29 20)" stroke="#757575"/>
<circle cx="6.5" cy="6.5" r="6.5" transform="translate(29)" fill="#C00A26"/>
<path d="M3.30767 3.6L1.23077 1.3L0 2.5L3.30767 6L8.23075 1.2L6.99998 0L3.30767 3.6Z" transform="translate(31.5 4)" fill="white"/>
</svg>