<svg width="42" height="27" viewBox="0 0 42 27" fill="none" xmlns="http://www.w3.org/2000/svg">
<path d="M0 2C0 1.33333 0.4 0 2 0C3.6 0 13.6667 0 19 0C19.6667 0 21 0.4 21 2C21 3.42963 21 12.9495 21 19.003C21 20.1076 20.1046 21 19 21H17.81C16.7825 21 15.9388 20.202 15.5279 19.2603C14.8413 17.6866 13.3453 16 10.5 16C7.65469 16 6.15868 17.6866 5.47208 19.2603C5.06118 20.202 4.21753 21 3.19002 21H2C0.89543 21 0 20.1046 0 19V2Z" transform="translate(1 2)" stroke="#C00A26"/>
<path d="M7.5 12C4.15487 12 2.67472 14.3312 2.18225 16.0693C2.03522 16.5883 1.58925 17 1.04988 17V17C0.470045 17 0 16.53 0 15.9501V2C0 0.895431 0.895431 0 2 0H7.02183C7.63901 0 8.22162 0.284945 8.60054 0.772118L14.5787 8.45833C14.8518 8.8094 15 9.24146 15 9.68622V15.9501C15 16.53 14.53 17 13.9501 17V17C13.4107 17 12.9648 16.5883 12.8177 16.0693C12.3253 14.3312 10.8451 12 7.5 12Z" transform="translate(25 6)" stroke="#C00A26"/>
<circle cx="3.5" cy="3.5" r="3" transform="translate(8 20)" stroke="#C00A26"/>
<circle cx="3.5" cy="3.5" r="3" transform="translate(29 20)" stroke="#C00A26"/>
<circle cx="6.5" cy="6.5" r="6.5" transform="translate(29)" fill="#C00A26"/>
<path d="M3.30767 3.6L1.23077 1.3L0 2.5L3.30767 6L8.23075 1.2L6.99998 0L3.30767 3.6Z" transform="translate(31.5 4)" fill="white"/>
</svg>