<svg width="25" height="25" viewBox="0 0 25 25" fill="none" xmlns="http://www.w3.org/2000/svg">
<rect width="25" height="25" fill="black" fill-opacity="0"/>
<rect width="25" height="25" fill="url(#paint0_linear)"/>
<rect width="17" height="17" fill="black" fill-opacity="0" transform="translate(4 4)"/>
<rect width="17" height="17" fill="black" fill-opacity="0" transform="translate(4 4)"/>
<path d="M16.3085 4H8.69129C6.10451 4 4 6.10461 4 8.69139V16.3086C4 18.8955 6.10451 21 8.69129 21H16.3085C18.8955 21 21 18.8954 21 16.3086V8.69139C21.0001 6.10461 18.8955 4 16.3085 4ZM19.4918 16.3086C19.4918 18.0638 18.0638 19.4917 16.3086 19.4917H8.69129C6.9362 19.4918 5.50832 18.0638 5.50832 16.3086V8.69139C5.50832 6.9363 6.9362 5.50832 8.69129 5.50832H16.3085C18.0637 5.50832 19.4917 6.9363 19.4917 8.69139V16.3086H19.4918Z" fill="white"/>
<path d="M12.5001 8.11974C10.0847 8.11974 8.11963 10.0848 8.11963 12.5002C8.11963 14.9155 10.0847 16.8805 12.5001 16.8805C14.9155 16.8805 16.8806 14.9155 16.8806 12.5002C16.8806 10.0848 14.9155 8.11974 12.5001 8.11974ZM12.5001 15.3721C10.9165 15.3721 9.62795 14.0837 9.62795 12.5001C9.62795 10.9164 10.9164 9.62796 12.5001 9.62796C14.0838 9.62796 15.3722 10.9164 15.3722 12.5001C15.3722 14.0837 14.0837 15.3721 12.5001 15.3721Z" fill="white"/>
<path d="M17.0642 6.84079C16.7736 6.84079 16.4882 6.95844 16.2829 7.16458C16.0767 7.36971 15.9581 7.65528 15.9581 7.94689C15.9581 8.2376 16.0768 8.52307 16.2829 8.72921C16.4881 8.93434 16.7736 9.053 17.0642 9.053C17.3558 9.053 17.6404 8.93434 17.8466 8.72921C18.0527 8.52307 18.1703 8.2375 18.1703 7.94689C18.1703 7.65528 18.0527 7.36971 17.8466 7.16458C17.6414 6.95844 17.3558 6.84079 17.0642 6.84079Z" fill="white"/>
<defs>
<linearGradient id="paint0_linear" x1="-3.92348e-07" y1="2" x2="25" y2="25" gradientUnits="userSpaceOnUse">
<stop stop-color="#C12697"/>
<stop offset="0.513812" stop-color="#EA265A"/>
<stop offset="1" stop-color="#F76332"/>
</linearGradient>
</defs>
</svg>