<?xml version="1.0" encoding="UTF-8"?>
<!-- Generator: Adobe Illustrator 23.0.6, SVG Export Plug-In . SVG Version: 6.00 Build 0)  -->
<svg version="1.1" id="Слой_1" xmlns="http://www.w3.org/2000/svg" xmlns:xlink="http://www.w3.org/1999/xlink" x="0px" y="0px" width="25px" height="25px" viewBox="0 0 25 25" style="enable-background:new 0 0 25 25;" xml:space="preserve">
<style type="text/css">
	.st0{fill-opacity:0;}
	.st1{fill:#50B1DF;}
	.st2{fill:#FFFFFF;}
	.st3{fill:#D1E3EF;}
	.st4{fill:#B6CCDD;}
</style>
<rect class="st0" width="25" height="25"/>
<rect class="st1" width="25" height="25"/>
<g>
	<path class="st2" d="M4,11.9l15.2-5.6c0.3-0.1,0.6,0.1,0.6,0.4l-2.7,12.2c-0.1,0.3-0.5,0.5-0.8,0.3l-6-4.3c0,0,0,0,0,0l6-5.8   c0,0,0-0.1,0-0.1l-7.9,4.9c0,0,0,0,0,0L4,12.5C3.8,12.4,3.7,12,4,11.9z"/>
	<polygon class="st3" points="8.3,13.9 9.8,18.9 10.2,14.9 16.4,8.8  "/>
	<polygon class="st4" points="9.8,18.9 12.4,16.4 10.2,14.9  "/>
</g>
</svg>