<svg width="45" height="45" viewBox="0 0 45 45" fill="none" xmlns="http://www.w3.org/2000/svg">
<g clip-path="url(#clip0_2_2)">
<path d="M45 0H0V45H45V0Z" fill="#424242"/>
<path d="M37.5 14.68C36.4985 14.68 35.5068 14.4826 34.5816 14.099C33.6565 13.7154 32.816 13.1533 32.1083 12.4446C31.4006 11.736 30.8395 10.8948 30.4572 9.96912C30.0748 9.04346 29.8787 8.05151 29.88 7.05H24.16V29.19C24.16 30.1117 23.8867 31.0126 23.3746 31.779C22.8626 32.5453 22.1348 33.1426 21.2833 33.4953C20.4318 33.848 19.4948 33.9403 18.5909 33.7605C17.6869 33.5807 16.8566 33.1368 16.2049 32.4851C15.5532 31.8334 15.1093 31.0031 14.9295 30.0991C14.7497 29.1952 14.842 28.2582 15.1947 27.4067C15.5474 26.5552 16.1447 25.8274 16.911 25.3153C17.6774 24.8033 18.5783 24.53 19.5 24.53C19.9944 24.5274 20.4864 24.5982 20.96 24.74V18.91C20.4765 18.8408 19.9885 18.8074 19.5 18.81C17.447 18.81 15.4402 19.4188 13.7332 20.5593C12.0262 21.6999 10.6958 23.321 9.91013 25.2177C9.12449 27.1144 8.91893 29.2015 9.31945 31.215C9.71996 33.2286 10.7086 35.0781 12.1602 36.5298C13.6119 37.9814 15.4614 38.97 17.475 39.3706C19.4885 39.7711 21.5756 39.5655 23.4723 38.7799C25.369 37.9942 26.9901 36.6638 28.1307 34.9568C29.2712 33.2498 29.88 31.243 29.88 29.19V17.47C32.0285 19.2314 34.7217 20.1928 37.5 20.19V14.68Z" fill="#E72F5C"/>
<path d="M35.88 13.06C33.859 13.06 31.9209 12.2572 30.4918 10.8282C29.0628 9.39912 28.26 7.46095 28.26 5.44H22.54V27.57C22.54 28.4917 22.2667 29.3926 21.7546 30.159C21.2426 30.9253 20.5148 31.5226 19.6633 31.8753C18.8118 32.228 17.8748 32.3203 16.9709 32.1405C16.0669 31.9607 15.2366 31.5168 14.5849 30.8651C13.9332 30.2134 13.4893 29.3831 13.3095 28.4791C13.1297 27.5752 13.222 26.6382 13.5747 25.7867C13.9274 24.9352 14.5247 24.2074 15.291 23.6954C16.0574 23.1833 16.9583 22.91 17.88 22.91C18.3744 22.9074 18.8664 22.9782 19.34 23.12V17.29C18.8564 17.2208 18.3685 17.1874 17.88 17.19C15.827 17.19 13.8202 17.7988 12.1132 18.9393C10.4062 20.0799 9.07577 21.701 8.29013 23.5977C7.50449 25.4944 7.29893 27.5815 7.69945 29.595C8.09996 31.6086 9.08856 33.4581 10.5402 34.9098C11.9919 36.3614 13.8414 37.35 15.855 37.7505C17.8685 38.1511 19.9556 37.9455 21.8523 37.1599C23.7489 36.3742 25.3701 35.0438 26.5107 33.3368C27.6512 31.6298 28.26 29.623 28.26 27.57V15.85C30.4085 17.6114 33.1017 18.5728 35.88 18.57V13.06Z" fill="#00A9BE"/>
<path d="M35.88 14.51C34.0661 14.1119 32.4593 13.0668 31.36 11.57C29.8636 10.4722 28.8212 8.86422 28.43 7.05H24.16V29.19C24.1613 30.212 23.8267 31.2061 23.2075 32.0192C22.5884 32.8323 21.7191 33.4193 20.7336 33.6898C19.7481 33.9604 18.7009 33.8994 17.7534 33.5164C16.8059 33.1333 16.0106 32.4494 15.49 31.57C14.6147 31.0468 13.9352 30.251 13.5556 29.3046C13.176 28.3581 13.1174 27.3133 13.3887 26.3303C13.66 25.3473 14.2462 24.4804 15.0575 23.8626C15.8687 23.2448 16.8603 22.9102 17.88 22.91C18.3744 22.9074 18.8664 22.9782 19.34 23.12V18.81C17.3987 18.8395 15.5047 19.4129 13.873 20.465C12.2413 21.5171 10.9373 23.0057 10.1093 24.7618C9.28129 26.5178 8.96235 28.4709 9.18873 30.3992C9.41512 32.3274 10.1778 34.1535 11.39 35.67C12.9164 36.8928 14.7571 37.6596 16.7003 37.8819C18.6434 38.1041 20.6097 37.7729 22.3728 36.9264C24.1359 36.0799 25.624 34.7525 26.6656 33.0971C27.7071 31.4417 28.2598 29.5258 28.26 27.57V15.85C30.4085 17.6114 33.1017 18.5728 35.88 18.57V14.51Z" fill="white"/>
</g>
<defs>
<clipPath id="clip0_2_2">
<rect width="45" height="45" fill="white"/>
</clipPath>
</defs>
</svg>