<svg width="25" height="25" viewBox="0 0 25 25" fill="none" xmlns="http://www.w3.org/2000/svg">
<rect width="25" height="25" fill="black" fill-opacity="0"/>
<rect width="25" height="25" fill="#2DAAE2"/>
<rect width="17.2667" height="14" fill="black" fill-opacity="0" transform="translate(4 6)"/>
<rect width="17.2667" height="14" fill="black" fill-opacity="0" transform="translate(4 6)"/>
<rect width="17.2667" height="14" fill="black" fill-opacity="0" transform="translate(4 6)"/>
<path d="M21.2667 7.65642C20.6312 7.93751 19.9493 8.12814 19.2328 8.21324C19.9644 7.77597 20.5243 7.08239 20.7897 6.25847C20.1035 6.66342 19.3461 6.95746 18.539 7.11686C17.8927 6.42866 16.9734 6 15.9538 6C13.9976 6 12.4116 7.5832 12.4116 9.53473C12.4116 9.81151 12.4428 10.0818 12.5033 10.3403C9.55988 10.1928 6.94987 8.78514 5.20303 6.64618C4.89767 7.16747 4.72396 7.77487 4.72396 8.42325C4.72396 9.64997 5.34976 10.7324 6.29926 11.3656C5.71877 11.3462 5.17281 11.1868 4.69484 10.9219V10.9661C4.69484 12.6785 5.91624 14.1077 7.53575 14.4329C7.23903 14.5126 6.92614 14.5568 6.60245 14.5568C6.37372 14.5568 6.15252 14.5342 5.93565 14.4911C6.38664 15.8966 7.69437 16.9187 9.24377 16.9467C8.03208 17.8944 6.50426 18.4577 4.84483 18.4577C4.55891 18.4577 4.27728 18.4405 4 18.4093C5.56774 19.4141 7.42896 20 9.42936 20C15.9452 20 19.5069 14.6128 19.5069 9.94077L19.495 9.48305C20.1909 8.98759 20.793 8.3651 21.2667 7.65642Z" fill="white"/>
</svg>